<?xml version="1.0" encoding="utf-8"?>
<svg viewBox="0 0 500 500" xmlns="http://www.w3.org/2000/svg" xmlns:bx="https://boxy-svg.com">
  <circle style="pointer-events: none; fill: rgb(248, 174, 3); stroke-width: 4px; stroke: rgb(0, 0, 0);" cx="117.916" cy="133.455" r="65.412"/>
  <circle style="pointer-events: none; fill: rgb(248, 174, 3); stroke: rgb(0, 0, 0); stroke-width: 4px;" cx="331.81" cy="136.197" r="66.953"/>
  <polyline style="pointer-events: none; fill: rgb(114, 82, 36); stroke: rgb(0, 0, 0); stroke-width: 4px;" points="55.759 380.256 99.634 377.514 98.72 414.077 140.768 413.163 168.19 397.623 194.698 418.647 273.309 415.905 288.848 400.366 319.013 417.733 360.146 415.905 358.318 375.686 400.366 383.912 402.194 209.324 393.967 189.214 388.483 180.987 303.474 87.751 154.479 85.923 67.642 178.245 53.931 217.55 55.759 380.256"/>
  <ellipse style="pointer-events: none; fill: rgb(248, 174, 3); stroke: rgb(0, 0, 0); stroke-width: 4px;" cx="227.148" cy="232.175" rx="128.428" ry="146.252"/>
  <ellipse style="pointer-events: none; fill: rgb(255, 255, 255);" cx="228.52" cy="306.217" rx="90.494" ry="63.986"/>
  <ellipse style="fill: rgb(255, 255, 255); pointer-events: none;" cx="229.891" cy="372.487" rx="60.786" ry="30.621"/>
  <polygon style="pointer-events: none; fill: rgb(255, 255, 255);" points="118.83 159.963 333.638 160.878 336.38 233.09 299.817 265.996 228.519 323.583 117.916 235.832 119.744 159.049"/>
  <rect x="184.644" y="101.463" width="85.923" height="180.987" style="fill: rgb(248, 174, 3); pointer-events: none;"/>
  <path d="M 352.834 151.125 L 399.277 231.566 L 306.391 231.566 L 352.834 151.125 Z" style="pointer-events: none; fill: rgb(114, 82, 36); stroke: rgb(0, 0, 0); stroke-width: 4px;" transform="matrix(-0.999978, 0.006567, -0.006567, -0.999978, 580.861633, 313.035126)" bx:shape="triangle 306.391 151.125 92.886 80.441 0.5 0 1@ea73b1bd"/>
  <ellipse style="pointer-events: none; fill: rgb(4, 4, 4);" cx="156.307" cy="217.55" rx="16.453" ry="25.594"/>
  <ellipse style="pointer-events: none;" cx="298.446" cy="217.093" rx="17.824" ry="26.051"/>
  <path d="M 429.379 399.17 L 472.175 472.989 L 386.583 472.989 L 429.379 399.17 Z" style="fill: rgb(233, 157, 157); pointer-events: none;" transform="matrix(0.5, 0.866025, -0.866025, 0.5, 401.76358, -288.819641)" bx:shape="triangle 386.583 399.17 85.592 73.819 0.5 0 1@b067c4dd"/>
  <ellipse style="pointer-events: none;" cx="230.804" cy="376.6" rx="20.567" ry="9.14"/>
</svg>